# Vectary OBJ Export units=mm
mtllib Project Name.mtl
o 000_Box
g Box
usemtl Bronco_1abff48e-6b97-4847-9ba3-f334e22dec0b
v 4.348 6.932 41.376
v -4.348 6.932 -51.376
v 4.348 6.932 -51.376
v -4.348 6.932 41.376
v -4.348 99.683 41.376
v -4.348 99.683 -51.376
v 4.348 99.683 41.376
v 4.348 99.683 -51.376
vn 0.00000 -1.00000 -0.00000
vn 0.00000 -1.00000 -0.00000
vn 0.00000 -1.00000 -0.00000
vn 0.00000 -1.00000 -0.00000
vn -1.00000 0.00000 0.00000
vn -1.00000 0.00000 0.00000
vn -1.00000 0.00000 0.00000
vn -1.00000 0.00000 0.00000
vn 0.00000 -0.00000 1.00000
vn 0.00000 -0.00000 1.00000
vn 0.00000 -0.00000 1.00000
vn 0.00000 -0.00000 1.00000
vn 0.00000 0.00000 -1.00000
vn 0.00000 0.00000 -1.00000
vn 0.00000 0.00000 -1.00000
vn 0.00000 0.00000 -1.00000
vn 1.00000 0.00000 0.00000
vn 1.00000 0.00000 0.00000
vn 1.00000 0.00000 0.00000
vn 1.00000 0.00000 0.00000
vn 0.00000 1.00000 0.00000
vn 0.00000 1.00000 0.00000
vn 0.00000 1.00000 0.00000
vn 0.00000 1.00000 0.00000
f 3//3 1//1 4//4 2//2 
f 6//7 2//5 4//8 5//6 
f 5//11 4//9 1//12 7//10 
f 8//15 3//13 2//16 6//14 
f 7//19 1//17 3//20 8//18 
f 6//23 5//21 7//24 8//22 
